<svg width="27" height="26" viewBox="0 0 27 26" fill="none" xmlns="http://www.w3.org/2000/svg">
<path d="M13.3371 25.9885C20.5105 25.9885 26.3258 20.1733 26.3258 12.9999C26.3258 5.82644 20.5105 0.0112305 13.3371 0.0112305C6.16369 0.0112305 0.34848 5.82644 0.34848 12.9999C0.34848 20.1733 6.16369 25.9885 13.3371 25.9885Z" fill="white"/>
<path d="M19.6589 7.48466L17.3402 19.1795C17.3402 19.1795 17.0155 19.9913 16.1225 19.6006L10.7698 15.496L8.8215 14.5574L5.5439 13.4564C5.5439 13.4564 5.04161 13.2788 4.99087 12.8881C4.94014 12.4975 5.55912 12.2894 5.55912 12.2894L18.5884 7.18024C18.5884 7.17517 19.6589 6.70331 19.6589 7.48466Z" fill="#101010"/>
<path d="M10.3538 19.0477C10.3538 19.0477 10.1965 19.0324 10.0037 18.4185C9.8109 17.8046 8.82153 14.5575 8.82153 14.5575L16.6908 9.55988C16.6908 9.55988 17.1475 9.2859 17.1272 9.55988C17.1272 9.55988 17.2083 9.61062 16.9648 9.83386C16.7213 10.0622 10.785 15.3997 10.785 15.3997" fill="white"/>
<path d="M12.8196 17.0689L10.7038 19.002C10.7038 19.002 10.5364 19.1288 10.3588 19.0477L10.7647 15.4606" fill="#101010"/>
</svg>
