<svg width="26" height="26" viewBox="0 0 26 26" fill="none" xmlns="http://www.w3.org/2000/svg">
<path d="M12.9886 25.9885C20.1621 25.9885 25.9773 20.1733 25.9773 12.9999C25.9773 5.82644 20.1621 0.0112305 12.9886 0.0112305C5.81521 0.0112305 0 5.82644 0 12.9999C0 20.1733 5.81521 25.9885 12.9886 25.9885Z" fill="white"/>
<path fill-rule="evenodd" clip-rule="evenodd" d="M12.4966 18.6977H13.5164C13.5164 18.6977 13.8259 18.6622 13.9832 18.4947C14.1303 18.3375 14.1252 18.0483 14.1252 18.0483C14.1252 18.0483 14.1049 16.6784 14.7391 16.4805C15.3632 16.2826 16.1699 17.7996 17.0223 18.3882C17.6667 18.8296 18.1537 18.7332 18.1537 18.7332L20.4318 18.7028C20.4318 18.7028 21.6241 18.6317 21.0559 17.6931C21.0102 17.617 20.7261 16.998 19.3613 15.7347C17.9356 14.4104 18.1233 14.6235 19.8433 12.3302C20.8935 10.9349 21.3096 10.0826 21.1776 9.71726C21.0508 9.36717 20.2847 9.46357 20.2847 9.46357L17.7174 9.4788C17.7174 9.4788 17.5297 9.45343 17.3876 9.53461C17.2506 9.61578 17.1593 9.80858 17.1593 9.80858C17.1593 9.80858 16.7534 10.8893 16.2105 11.8076C15.0689 13.7458 14.6123 13.8472 14.4246 13.7305C13.9882 13.4464 14.0999 12.6042 14.0999 12.0004C14.0999 10.1232 14.384 9.33673 13.5468 9.13378C13.2678 9.06783 13.0648 9.02216 12.3494 9.01709C11.4362 9.00694 10.6599 9.01709 10.2185 9.23526C9.92929 9.37732 9.70097 9.69696 9.83796 9.71218C10.0054 9.73248 10.391 9.81873 10.5939 10.0927C10.8578 10.4479 10.8476 11.2546 10.8476 11.2546C10.8476 11.2546 10.9998 13.4667 10.4925 13.7407C10.1475 13.9284 9.67053 13.5428 8.65579 11.7873C8.1332 10.8842 7.74253 9.88976 7.74253 9.88976C7.74253 9.88976 7.66642 9.70204 7.52943 9.60564C7.362 9.48387 7.13369 9.44835 7.13369 9.44835L4.69832 9.46357C4.69832 9.46357 4.33301 9.47372 4.19602 9.63101C4.07933 9.77307 4.18587 10.0673 4.18587 10.0673C4.18587 10.0673 6.09358 14.5322 8.25497 16.7798C10.2489 18.8347 12.4966 18.6977 12.4966 18.6977Z" fill="#101010"/>
</svg>
