<svg width="27" height="26" viewBox="0 0 27 26" fill="none" xmlns="http://www.w3.org/2000/svg">
<path d="M13.6629 25.9885C6.49057 25.9885 0.674255 20.1722 0.674255 12.9999C0.674255 5.82754 6.49057 0.0112305 13.6629 0.0112305C20.8352 0.0112305 26.6515 5.82754 26.6515 12.9999C26.6515 20.1722 20.8352 25.9885 13.6629 25.9885Z" fill="white"/>
<path d="M21.9289 8.82008C21.7314 8.07194 21.147 7.48485 20.404 7.28482C19.0584 6.92114 13.6655 6.92114 13.6655 6.92114C13.6655 6.92114 8.27002 6.92114 6.927 7.28482C6.18405 7.48485 5.59956 8.07194 5.40213 8.82008C5.03845 10.1735 5.03845 12.9998 5.03845 12.9998C5.03845 12.9998 5.03845 15.8262 5.39954 17.1796C5.59696 17.9277 6.18145 18.5148 6.9244 18.7148C8.27003 19.0785 13.6629 19.0785 13.6629 19.0785C13.6629 19.0785 19.0584 19.0785 20.4014 18.7148C21.1444 18.5148 21.7288 17.9277 21.9263 17.1796C22.2874 15.8262 22.2874 12.9998 22.2874 12.9998C22.2874 12.9998 22.2874 10.1735 21.9289 8.82008ZM11.899 15.5638V10.4359L16.4061 12.9998L11.899 15.5638Z" fill="#101010"/>
</svg>
