<svg width="33" height="33" viewBox="0 0 33 33" fill="none" xmlns="http://www.w3.org/2000/svg">
<circle cx="16.5" cy="16.5" r="16.5" fill="white"/>
<g clip-path="url(#clip0_128_34)">
<path d="M16.6777 17.8403C15.3057 16.7122 14.3897 15.3201 13.9081 14.528L13.5488 13.8507C13.6744 13.7159 14.6323 12.6902 15.0474 12.1337C15.5691 11.4348 14.8128 10.8037 14.8128 10.8037C14.8128 10.8037 12.6846 8.67521 12.1996 8.253C11.7146 7.83021 11.1563 8.06503 11.1563 8.06503C10.1369 8.72368 9.08012 9.29632 9.01673 12.0503C9.01436 14.6288 10.9717 17.2882 13.0883 19.347C15.2084 21.6722 18.1192 24.0027 20.9333 24C23.687 23.9372 24.2595 22.8806 24.9182 21.8612C24.9182 21.8612 25.1531 21.3033 24.7308 20.8179C24.3081 20.3326 22.1794 18.204 22.1794 18.204C22.1794 18.204 21.5487 17.4475 20.8497 17.9696C20.3287 18.359 19.3933 19.2251 19.1679 19.4351C19.1684 19.4359 17.6036 18.6017 16.6777 17.8403Z" fill="#101010"/>
</g>
<defs>
<clipPath id="clip0_128_34">
<rect width="16" height="16" fill="white" transform="translate(9 8)"/>
</clipPath>
</defs>
</svg>
