<svg width="236" height="63" viewBox="0 0 236 63" fill="none" xmlns="http://www.w3.org/2000/svg">
<path d="M55.4886 7.72727V31H51.2386L41.1136 16.3523H40.9432V31H36.0227V7.72727H40.3409L50.3864 22.3636H50.5909V7.72727H55.4886ZM59.554 31V7.72727H75.2358V11.7841H64.4744V17.3295H74.429V21.3864H64.4744V26.9432H75.2812V31H59.554ZM93.5227 7.72727H98.4432V22.8409C98.4432 24.5379 98.0379 26.0227 97.2273 27.2955C96.4242 28.5682 95.2992 29.5606 93.8523 30.2727C92.4053 30.9773 90.7197 31.3295 88.7955 31.3295C86.8636 31.3295 85.1742 30.9773 83.7273 30.2727C82.2803 29.5606 81.1553 28.5682 80.3523 27.2955C79.5492 26.0227 79.1477 24.5379 79.1477 22.8409V7.72727H84.0682V22.4205C84.0682 23.3068 84.2614 24.0947 84.6477 24.7841C85.0417 25.4735 85.5947 26.0152 86.3068 26.4091C87.0189 26.803 87.8485 27 88.7955 27C89.75 27 90.5795 26.803 91.2841 26.4091C91.9962 26.0152 92.5455 25.4735 92.9318 24.7841C93.3258 24.0947 93.5227 23.3068 93.5227 22.4205V7.72727ZM102.491 31V7.72727H111.673C113.431 7.72727 114.931 8.04167 116.173 8.67045C117.423 9.29167 118.374 10.1742 119.026 11.3182C119.685 12.4545 120.014 13.7917 120.014 15.3295C120.014 16.875 119.681 18.2045 119.014 19.3182C118.348 20.4242 117.382 21.2727 116.116 21.8636C114.859 22.4545 113.336 22.75 111.548 22.75H105.401V18.7955H110.753C111.692 18.7955 112.473 18.6667 113.094 18.4091C113.715 18.1515 114.177 17.7652 114.48 17.25C114.791 16.7348 114.946 16.0947 114.946 15.3295C114.946 14.5568 114.791 13.9053 114.48 13.375C114.177 12.8447 113.711 12.4432 113.082 12.1705C112.461 11.8902 111.677 11.75 110.73 11.75H107.412V31H102.491ZM115.06 20.4091L120.844 31H115.412L109.753 20.4091H115.06ZM144.878 19.3636C144.878 21.9015 144.397 24.0606 143.435 25.8409C142.48 27.6212 141.177 28.9811 139.526 29.9205C137.882 30.8523 136.033 31.3182 133.98 31.3182C131.912 31.3182 130.056 30.8485 128.412 29.9091C126.768 28.9697 125.469 27.6098 124.514 25.8295C123.56 24.0492 123.082 21.8939 123.082 19.3636C123.082 16.8258 123.56 14.6667 124.514 12.8864C125.469 11.1061 126.768 9.75 128.412 8.81818C130.056 7.87879 131.912 7.40909 133.98 7.40909C136.033 7.40909 137.882 7.87879 139.526 8.81818C141.177 9.75 142.48 11.1061 143.435 12.8864C144.397 14.6667 144.878 16.8258 144.878 19.3636ZM139.889 19.3636C139.889 17.7197 139.643 16.3333 139.151 15.2045C138.666 14.0758 137.98 13.2197 137.094 12.6364C136.207 12.053 135.17 11.7614 133.98 11.7614C132.791 11.7614 131.753 12.053 130.866 12.6364C129.98 13.2197 129.291 14.0758 128.798 15.2045C128.313 16.3333 128.071 17.7197 128.071 19.3636C128.071 21.0076 128.313 22.3939 128.798 23.5227C129.291 24.6515 129.98 25.5076 130.866 26.0909C131.753 26.6742 132.791 26.9659 133.98 26.9659C135.17 26.9659 136.207 26.6742 137.094 26.0909C137.98 25.5076 138.666 24.6515 139.151 23.5227C139.643 22.3939 139.889 21.0076 139.889 19.3636ZM169.057 15.875H164.08C163.989 15.2311 163.803 14.6591 163.523 14.1591C163.242 13.6515 162.883 13.2197 162.443 12.8636C162.004 12.5076 161.496 12.2348 160.92 12.0455C160.352 11.8561 159.735 11.7614 159.068 11.7614C157.864 11.7614 156.814 12.0606 155.92 12.6591C155.027 13.25 154.333 14.1136 153.841 15.25C153.348 16.3788 153.102 17.75 153.102 19.3636C153.102 21.0227 153.348 22.4167 153.841 23.5455C154.341 24.6742 155.038 25.5265 155.932 26.1023C156.826 26.678 157.86 26.9659 159.034 26.9659C159.693 26.9659 160.303 26.8788 160.864 26.7045C161.432 26.5303 161.936 26.2765 162.375 25.9432C162.814 25.6023 163.178 25.1894 163.466 24.7045C163.761 24.2197 163.966 23.6667 164.08 23.0455L169.057 23.0682C168.928 24.1364 168.606 25.1667 168.091 26.1591C167.583 27.1439 166.898 28.0265 166.034 28.8068C165.178 29.5795 164.155 30.1932 162.966 30.6477C161.784 31.0947 160.447 31.3182 158.955 31.3182C156.879 31.3182 155.023 30.8485 153.386 29.9091C151.758 28.9697 150.47 27.6098 149.523 25.8295C148.583 24.0492 148.114 21.8939 148.114 19.3636C148.114 16.8258 148.591 14.6667 149.545 12.8864C150.5 11.1061 151.795 9.75 153.432 8.81818C155.068 7.87879 156.909 7.40909 158.955 7.40909C160.303 7.40909 161.553 7.59848 162.705 7.97727C163.864 8.35606 164.89 8.90909 165.784 9.63636C166.678 10.3561 167.405 11.2386 167.966 12.2841C168.534 13.3295 168.898 14.5265 169.057 15.875ZM176.159 31H170.886L178.92 7.72727H185.261L193.284 31H188.011L182.182 13.0455H182L176.159 31ZM175.83 21.8523H188.284V25.6932H175.83V21.8523ZM208.179 14.4205C208.088 13.5038 207.698 12.7917 207.009 12.2841C206.319 11.7765 205.384 11.5227 204.202 11.5227C203.399 11.5227 202.721 11.6364 202.168 11.8636C201.615 12.0833 201.19 12.3902 200.895 12.7841C200.607 13.178 200.463 13.625 200.463 14.125C200.448 14.5417 200.535 14.9053 200.724 15.2159C200.921 15.5265 201.19 15.7955 201.531 16.0227C201.872 16.2424 202.266 16.4356 202.713 16.6023C203.16 16.7614 203.637 16.8977 204.145 17.0114L206.236 17.5114C207.251 17.7386 208.183 18.0417 209.031 18.4205C209.88 18.7992 210.615 19.2652 211.236 19.8182C211.857 20.3712 212.338 21.0227 212.679 21.7727C213.027 22.5227 213.205 23.3826 213.213 24.3523C213.205 25.7765 212.842 27.0114 212.122 28.0568C211.41 29.0947 210.38 29.9015 209.031 30.4773C207.69 31.0455 206.073 31.3295 204.179 31.3295C202.3 31.3295 200.664 31.0417 199.27 30.4659C197.884 29.8902 196.8 29.0379 196.02 27.9091C195.247 26.7727 194.842 25.3674 194.804 23.6932H199.565C199.618 24.4735 199.842 25.125 200.236 25.6477C200.637 26.1629 201.171 26.553 201.838 26.8182C202.512 27.0758 203.274 27.2045 204.122 27.2045C204.955 27.2045 205.679 27.0833 206.293 26.8409C206.914 26.5985 207.395 26.2614 207.736 25.8295C208.077 25.3977 208.247 24.9015 208.247 24.3409C208.247 23.8182 208.092 23.3788 207.781 23.0227C207.478 22.6667 207.031 22.3636 206.44 22.1136C205.857 21.8636 205.141 21.6364 204.293 21.4318L201.759 20.7955C199.796 20.3182 198.247 19.572 197.111 18.5568C195.974 17.5417 195.41 16.1742 195.418 14.4545C195.41 13.0455 195.785 11.8144 196.543 10.7614C197.308 9.70833 198.357 8.88636 199.69 8.29545C201.024 7.70454 202.539 7.40909 204.236 7.40909C205.963 7.40909 207.471 7.70454 208.759 8.29545C210.054 8.88636 211.062 9.70833 211.781 10.7614C212.501 11.8144 212.872 13.0341 212.895 14.4205H208.179ZM215.636 11.7841V7.72727H234.75V11.7841H227.625V31H222.761V11.7841H215.636Z" fill="white"/>
<path d="M35.7614 58V43.4545H40.6761C41.8172 43.4545 42.75 43.6605 43.4744 44.0724C44.2036 44.4796 44.7434 45.0312 45.0938 45.7273C45.4441 46.4233 45.6193 47.1998 45.6193 48.0568C45.6193 48.9138 45.4441 49.6927 45.0938 50.3935C44.7481 51.0942 44.2131 51.6529 43.4886 52.0696C42.7642 52.4815 41.8362 52.6875 40.7045 52.6875H37.1818V51.125H40.6477C41.429 51.125 42.0563 50.9901 42.5298 50.7202C43.0033 50.4503 43.3466 50.0857 43.5597 49.6264C43.7775 49.1624 43.8864 48.6392 43.8864 48.0568C43.8864 47.4744 43.7775 46.9536 43.5597 46.4943C43.3466 46.035 43.0009 45.6752 42.5227 45.4148C42.0445 45.1496 41.41 45.017 40.6193 45.017H37.5227V58H35.7614ZM48.2294 58V47.0909H49.8487V48.7386H49.9624C50.1612 48.1989 50.5211 47.7609 51.0419 47.4247C51.5627 47.0885 52.1499 46.9205 52.8033 46.9205C52.9264 46.9205 53.0803 46.9228 53.2649 46.9276C53.4496 46.9323 53.5893 46.9394 53.6839 46.9489V48.6534C53.6271 48.6392 53.4969 48.6179 53.2933 48.5895C53.0945 48.5563 52.8838 48.5398 52.6612 48.5398C52.1309 48.5398 51.6574 48.651 51.2408 48.8736C50.8288 49.0914 50.5021 49.3944 50.2607 49.7827C50.0239 50.1662 49.9055 50.6042 49.9055 51.0966V58H48.2294ZM59.7706 58.2273C58.7857 58.2273 57.9216 57.9929 57.1783 57.5241C56.4396 57.0554 55.862 56.3996 55.4453 55.5568C55.0334 54.714 54.8274 53.7292 54.8274 52.6023C54.8274 51.4659 55.0334 50.474 55.4453 49.6264C55.862 48.7789 56.4396 48.1207 57.1783 47.652C57.9216 47.1832 58.7857 46.9489 59.7706 46.9489C60.7554 46.9489 61.6172 47.1832 62.3558 47.652C63.0992 48.1207 63.6768 48.7789 64.0888 49.6264C64.5054 50.474 64.7138 51.4659 64.7138 52.6023C64.7138 53.7292 64.5054 54.714 64.0888 55.5568C63.6768 56.3996 63.0992 57.0554 62.3558 57.5241C61.6172 57.9929 60.7554 58.2273 59.7706 58.2273ZM59.7706 56.7216C60.5187 56.7216 61.1342 56.5298 61.6172 56.1463C62.1001 55.7628 62.4576 55.2585 62.6896 54.6335C62.9216 54.0085 63.0376 53.3314 63.0376 52.6023C63.0376 51.8731 62.9216 51.1937 62.6896 50.5639C62.4576 49.9342 62.1001 49.4252 61.6172 49.0369C61.1342 48.6487 60.5187 48.4545 59.7706 48.4545C59.0225 48.4545 58.407 48.6487 57.924 49.0369C57.4411 49.4252 57.0836 49.9342 56.8516 50.5639C56.6196 51.1937 56.5036 51.8731 56.5036 52.6023C56.5036 53.3314 56.6196 54.0085 56.8516 54.6335C57.0836 55.2585 57.4411 55.7628 57.924 56.1463C58.407 56.5298 59.0225 56.7216 59.7706 56.7216ZM71.3917 58.2273C70.4826 58.2273 69.68 57.9976 68.984 57.5384C68.288 57.0743 67.7435 56.4209 67.3505 55.5781C66.9575 54.7306 66.761 53.7292 66.761 52.5739C66.761 51.428 66.9575 50.4337 67.3505 49.5909C67.7435 48.7481 68.2904 48.0971 68.9911 47.6378C69.6919 47.1785 70.5015 46.9489 71.4201 46.9489C72.1303 46.9489 72.6914 47.0672 73.1033 47.304C73.52 47.536 73.8372 47.8011 74.055 48.0994C74.2776 48.393 74.4504 48.6345 74.5735 48.8239H74.7156V43.4545H76.3917V58H74.7724V56.3239H74.5735C74.4504 56.5227 74.2752 56.7737 74.0479 57.0767C73.8207 57.375 73.4963 57.6425 73.0749 57.8793C72.6535 58.1113 72.0924 58.2273 71.3917 58.2273ZM71.619 56.7216C72.2913 56.7216 72.8595 56.5464 73.3235 56.196C73.7875 55.8409 74.1403 55.3509 74.3817 54.7259C74.6232 54.0961 74.744 53.3693 74.744 52.5455C74.744 51.7311 74.6256 51.0185 74.3888 50.4077C74.1521 49.7921 73.8017 49.3139 73.3377 48.973C72.8737 48.6274 72.3008 48.4545 71.619 48.4545C70.9087 48.4545 70.3169 48.6368 69.8434 49.0014C69.3746 49.3613 69.0219 49.8513 68.7852 50.4716C68.5531 51.0871 68.4371 51.7784 68.4371 52.5455C68.4371 53.322 68.5555 54.0275 68.7923 54.6619C69.0337 55.2917 69.3888 55.7936 69.8576 56.1676C70.3311 56.5369 70.9182 56.7216 71.619 56.7216ZM86.5692 53.5398V47.0909H88.2454V58H86.5692V56.1534H86.4556C86.1999 56.7074 85.8022 57.1785 85.2624 57.5668C84.7227 57.9503 84.0408 58.142 83.217 58.142C82.5352 58.142 81.9291 57.9929 81.3988 57.6946C80.8685 57.3916 80.4518 56.937 80.1488 56.331C79.8458 55.7202 79.6942 54.9508 79.6942 54.0227V47.0909H81.3704V53.9091C81.3704 54.7045 81.5929 55.339 82.038 55.8125C82.4878 56.286 83.0607 56.5227 83.7567 56.5227C84.1734 56.5227 84.5972 56.4162 85.0281 56.2031C85.4637 55.9901 85.8282 55.6634 86.1218 55.223C86.4201 54.7827 86.5692 54.2216 86.5692 53.5398ZM95.7472 58.2273C94.7244 58.2273 93.8438 57.9858 93.1051 57.5028C92.3665 57.0199 91.7983 56.3546 91.4006 55.5071C91.0028 54.6596 90.804 53.6913 90.804 52.6023C90.804 51.4943 91.0076 50.5166 91.4148 49.669C91.8267 48.8168 92.3996 48.1515 93.1335 47.6733C93.8722 47.1903 94.7339 46.9489 95.7188 46.9489C96.4858 46.9489 97.1771 47.0909 97.7926 47.375C98.4081 47.6591 98.9124 48.0568 99.3054 48.5682C99.6984 49.0795 99.9422 49.6761 100.037 50.358H98.3608C98.233 49.8608 97.9489 49.4205 97.5085 49.0369C97.0729 48.6487 96.4858 48.4545 95.7472 48.4545C95.0938 48.4545 94.5208 48.625 94.0284 48.9659C93.5407 49.3021 93.1596 49.7779 92.8849 50.3935C92.6151 51.0043 92.4801 51.7216 92.4801 52.5455C92.4801 53.3883 92.6127 54.1222 92.8778 54.7472C93.1477 55.3722 93.5265 55.8575 94.0142 56.2031C94.5066 56.5488 95.0843 56.7216 95.7472 56.7216C96.1828 56.7216 96.5781 56.6458 96.9332 56.4943C97.2884 56.3428 97.589 56.125 97.8352 55.8409C98.0814 55.5568 98.2566 55.2159 98.3608 54.8182H100.037C99.9422 55.4621 99.7079 56.0421 99.3338 56.5582C98.9645 57.0696 98.4744 57.4768 97.8636 57.7798C97.2576 58.0781 96.5521 58.2273 95.7472 58.2273ZM107.232 47.0909V48.5114H101.578V47.0909H107.232ZM103.226 44.4773H104.902V54.875C104.902 55.3485 104.971 55.7036 105.108 55.9403C105.25 56.1723 105.43 56.3286 105.648 56.4091C105.87 56.4848 106.105 56.5227 106.351 56.5227C106.536 56.5227 106.687 56.5133 106.805 56.4943C106.924 56.4706 107.018 56.4517 107.089 56.4375L107.43 57.9432C107.317 57.9858 107.158 58.0284 106.955 58.071C106.751 58.1184 106.493 58.142 106.18 58.142C105.707 58.142 105.243 58.0402 104.788 57.8366C104.339 57.633 103.964 57.3229 103.666 56.9062C103.373 56.4896 103.226 55.964 103.226 55.3295V44.4773ZM109.753 58V47.0909H111.429V58H109.753ZM110.605 45.2727C110.278 45.2727 109.997 45.1615 109.76 44.9389C109.528 44.7164 109.412 44.4489 109.412 44.1364C109.412 43.8239 109.528 43.5563 109.76 43.3338C109.997 43.1113 110.278 43 110.605 43C110.932 43 111.211 43.1113 111.443 43.3338C111.68 43.5563 111.798 43.8239 111.798 44.1364C111.798 44.4489 111.68 44.7164 111.443 44.9389C111.211 45.1615 110.932 45.2727 110.605 45.2727ZM118.931 58.2273C117.946 58.2273 117.082 57.9929 116.338 57.5241C115.6 57.0554 115.022 56.3996 114.605 55.5568C114.194 54.714 113.988 53.7292 113.988 52.6023C113.988 51.4659 114.194 50.474 114.605 49.6264C115.022 48.7789 115.6 48.1207 116.338 47.652C117.082 47.1832 117.946 46.9489 118.931 46.9489C119.916 46.9489 120.777 47.1832 121.516 47.652C122.259 48.1207 122.837 48.7789 123.249 49.6264C123.666 50.474 123.874 51.4659 123.874 52.6023C123.874 53.7292 123.666 54.714 123.249 55.5568C122.837 56.3996 122.259 57.0554 121.516 57.5241C120.777 57.9929 119.916 58.2273 118.931 58.2273ZM118.931 56.7216C119.679 56.7216 120.294 56.5298 120.777 56.1463C121.26 55.7628 121.618 55.2585 121.85 54.6335C122.082 54.0085 122.198 53.3314 122.198 52.6023C122.198 51.8731 122.082 51.1937 121.85 50.5639C121.618 49.9342 121.26 49.4252 120.777 49.0369C120.294 48.6487 119.679 48.4545 118.931 48.4545C118.183 48.4545 117.567 48.6487 117.084 49.0369C116.601 49.4252 116.244 49.9342 116.012 50.5639C115.78 51.1937 115.664 51.8731 115.664 52.6023C115.664 53.3314 115.78 54.0085 116.012 54.6335C116.244 55.2585 116.601 55.7628 117.084 56.1463C117.567 56.5298 118.183 56.7216 118.931 56.7216ZM128.109 51.4375V58H126.433V47.0909H128.052V48.7955H128.194C128.45 48.2415 128.838 47.7964 129.359 47.4602C129.879 47.1193 130.552 46.9489 131.376 46.9489C132.114 46.9489 132.761 47.1004 133.315 47.4034C133.869 47.7017 134.299 48.1562 134.607 48.767C134.915 49.3731 135.069 50.1402 135.069 51.0682V58H133.393V51.1818C133.393 50.3248 133.17 49.6572 132.725 49.179C132.28 48.696 131.669 48.4545 130.893 48.4545C130.358 48.4545 129.879 48.5705 129.458 48.8026C129.041 49.0346 128.712 49.3731 128.471 49.8182C128.229 50.2633 128.109 50.803 128.109 51.4375Z" fill="white"/>
<circle cx="13" cy="19" r="13" fill="#FF0000"/>
</svg>
