<svg width="26" height="26" viewBox="0 0 26 26" fill="none" xmlns="http://www.w3.org/2000/svg">
<circle cx="13.0111" cy="12.9886" r="12.9886" fill="#101010"/>
<path d="M18.7406 15.5938C18.4449 15.4498 16.9844 14.7531 16.7097 14.6542C16.4365 14.5597 16.2368 14.5103 16.0417 14.7982C15.842 15.0847 15.2716 15.7377 15.1005 15.9254C14.9294 16.1188 14.7523 16.1406 14.4551 15.9981C14.1594 15.8526 13.2002 15.5501 12.0654 14.5655C11.1797 13.802 10.5868 12.8567 10.4097 12.5701C10.2386 12.2822 10.3932 12.128 10.5418 11.984C10.6724 11.856 10.8375 11.6466 10.9861 11.4808C11.1362 11.315 11.1857 11.1929 11.2833 11.0009C11.3809 10.806 11.3343 10.6402 11.2608 10.4962C11.1857 10.3522 10.5928 8.93132 10.3421 8.3583C10.102 7.79255 9.8573 7.87109 9.67417 7.86382C9.50304 7.85364 9.3034 7.85364 9.10376 7.85364C8.953 7.85727 8.80464 7.89105 8.66799 7.95287C8.53135 8.01469 8.40936 8.10321 8.3097 8.21287C8.0365 8.50083 7.27246 9.19747 7.27246 10.6184C7.27246 12.0393 8.33822 13.4049 8.48832 13.5984C8.63543 13.7918 10.5808 16.6991 13.5664 17.9498C14.2719 18.248 14.8273 18.424 15.2611 18.5578C15.9741 18.7788 16.6181 18.7454 17.1315 18.6741C17.7019 18.5898 18.8892 17.976 19.1399 17.3026C19.3861 16.6278 19.3861 16.0519 19.311 15.9312C19.2375 15.809 19.0378 15.7377 18.7406 15.5938Z" fill="white"/>
</svg>
