<svg width="27" height="26" viewBox="0 0 27 26" fill="none" xmlns="http://www.w3.org/2000/svg">
<path d="M13.3373 25.9773C20.5107 25.9773 26.3259 20.1621 26.3259 12.9886C26.3259 5.81521 20.5107 0 13.3373 0C6.16384 0 0.348633 5.81521 0.348633 12.9886C0.348633 20.1621 6.16384 25.9773 13.3373 25.9773Z" fill="#101010"/>
<path d="M19.6593 7.47343L17.3406 19.1683C17.3406 19.1683 17.0159 19.9801 16.1229 19.5894L10.7702 15.4848L8.82187 14.5461L5.54427 13.4452C5.54427 13.4452 5.04198 13.2676 4.99124 12.8769C4.9405 12.4862 5.55949 12.2782 5.55949 12.2782L18.5887 7.16901C18.5887 7.16394 19.6593 6.69208 19.6593 7.47343Z" fill="white"/>
<path d="M10.354 19.0364C10.354 19.0364 10.1967 19.0212 10.0039 18.4073C9.81115 17.7934 8.82178 14.5462 8.82178 14.5462L16.6911 9.54865C16.6911 9.54865 17.1477 9.27467 17.1274 9.54865C17.1274 9.54865 17.2086 9.59939 16.965 9.82263C16.7215 10.0509 10.7853 15.3885 10.7853 15.3885" fill="#101010"/>
<path d="M12.8201 17.0577L10.7044 18.9908C10.7044 18.9908 10.537 19.1176 10.3594 19.0364L10.7653 15.4493" fill="white"/>
</svg>
