<svg width="26" height="26" viewBox="0 0 26 26" fill="none" xmlns="http://www.w3.org/2000/svg">
<path d="M12.9886 25.9773C20.1621 25.9773 25.9773 20.1621 25.9773 12.9886C25.9773 5.81521 20.1621 0 12.9886 0C5.81521 0 0 5.81521 0 12.9886C0 20.1621 5.81521 25.9773 12.9886 25.9773Z" fill="#101010"/>
<path fill-rule="evenodd" clip-rule="evenodd" d="M12.4968 18.6865H13.5166C13.5166 18.6865 13.8261 18.6509 13.9834 18.4835C14.1305 18.3262 14.1254 18.037 14.1254 18.037C14.1254 18.037 14.1051 16.6671 14.7394 16.4693C15.3634 16.2714 16.1701 17.7884 17.0225 18.377C17.6669 18.8184 18.1539 18.722 18.1539 18.722L20.432 18.6915C20.432 18.6915 21.6243 18.6205 21.0561 17.6819C21.0104 17.6058 20.7263 16.9868 19.3615 15.7234C17.9358 14.3992 18.1235 14.6123 19.8435 12.319C20.8937 10.9237 21.3098 10.0713 21.1779 9.70603C21.051 9.35594 20.2849 9.45234 20.2849 9.45234L17.7176 9.46756C17.7176 9.46756 17.5299 9.4422 17.3878 9.52338C17.2508 9.60455 17.1595 9.79735 17.1595 9.79735C17.1595 9.79735 16.7536 10.878 16.2107 11.7964C15.0691 13.7345 14.6125 13.836 14.4248 13.7193C13.9884 13.4352 14.1001 12.593 14.1001 11.9892C14.1001 10.1119 14.3842 9.3255 13.547 9.12255C13.268 9.0566 13.065 9.01093 12.3496 9.00586C11.4364 8.99571 10.6601 9.00586 10.2187 9.22403C9.9295 9.36609 9.70118 9.68573 9.83817 9.70095C10.0056 9.72125 10.3912 9.8075 10.5942 10.0815C10.858 10.4366 10.8478 11.2434 10.8478 11.2434C10.8478 11.2434 11 13.4555 10.4927 13.7295C10.1477 13.9172 9.67074 13.5316 8.656 11.7761C8.13342 10.873 7.74274 9.87853 7.74274 9.87853C7.74274 9.87853 7.66664 9.69081 7.52965 9.59441C7.36221 9.47264 7.1339 9.43712 7.1339 9.43712L4.69853 9.45234C4.69853 9.45234 4.33322 9.46249 4.19623 9.61978C4.07954 9.76184 4.18609 10.0561 4.18609 10.0561C4.18609 10.0561 6.09379 14.521 8.25518 16.7686C10.2491 18.8234 12.4968 18.6865 12.4968 18.6865Z" fill="white"/>
</svg>
