<svg width="27" height="26" viewBox="0 0 27 26" fill="none" xmlns="http://www.w3.org/2000/svg">
<path d="M13.663 25.9773C6.49063 25.9773 0.674316 20.161 0.674316 12.9886C0.674316 5.81631 6.49063 0 13.663 0C20.8353 0 26.6516 5.81631 26.6516 12.9886C26.6516 20.161 20.8353 25.9773 13.663 25.9773Z" fill="#101010"/>
<path d="M21.929 8.80885C21.7316 8.06071 21.1471 7.47362 20.4041 7.27359C19.0585 6.90991 13.6656 6.90991 13.6656 6.90991C13.6656 6.90991 8.27015 6.90991 6.92712 7.27359C6.18417 7.47362 5.59968 8.06071 5.40226 8.80885C5.03857 10.1623 5.03857 12.9886 5.03857 12.9886C5.03857 12.9886 5.03857 15.8149 5.39966 17.1683C5.59709 17.9165 6.18157 18.5036 6.92452 18.7036C8.27015 19.0673 13.663 19.0673 13.663 19.0673C13.663 19.0673 19.0585 19.0673 20.4015 18.7036C21.1445 18.5036 21.729 17.9165 21.9264 17.1683C22.2875 15.8149 22.2875 12.9886 22.2875 12.9886C22.2875 12.9886 22.2875 10.1623 21.929 8.80885ZM11.8992 15.5525V10.4246L16.4062 12.9886L11.8992 15.5525Z" fill="white"/>
</svg>
